# xmcd CD database file
#
# Track frame offsets:
#	150
#	24295
#	43067
#	67222
#
# Disc length: 1143 seconds
#
# Revision: 0
# Processed by: cddbd v1.5PL3 Copyright (c) Steve Scherf et al.
# Submitted via: CDex 1.51
#
DISCID=31047504
DTITLE=飯塚雅弓 - love letter
DYEAR=1999
DGENRE=Japanese Pop
TTITLE0=love letter
TTITLE1=Magic!
TTITLE2=love letter (instrumental)
TTITLE3=Magic! (instrumental)
EXTD=YEAR: 1999
EXTT0=
EXTT1=
EXTT2=
EXTT3=
PLAYORDER=
